<svg width="19" height="18" viewBox="0 0 19 18" fill="none" xmlns="http://www.w3.org/2000/svg">
<path fill-rule="evenodd" clip-rule="evenodd" d="M5.97193 0.315668C6.89171 0.273325 7.18497 0.263916 9.52792 0.263916C11.8709 0.263916 12.1641 0.27411 13.0831 0.315668C14.0021 0.357226 14.6294 0.503857 15.1783 0.716354C15.7531 0.933556 16.2745 1.27308 16.7058 1.71219C17.1449 2.14267 17.4836 2.66333 17.7 3.23887C17.9133 3.78776 18.0592 4.41506 18.1015 5.33248C18.1439 6.25382 18.1533 6.54708 18.1533 8.88925C18.1533 11.2322 18.1431 11.5255 18.1015 12.4452C18.0599 13.3627 17.9133 13.99 17.7 14.5388C17.4836 15.1145 17.1443 15.636 16.7058 16.0671C16.2745 16.5062 15.7531 16.8449 15.1783 17.0614C14.6294 17.2746 14.0021 17.4205 13.0847 17.4628C12.1641 17.5052 11.8709 17.5146 9.52792 17.5146C7.18497 17.5146 6.89171 17.5044 5.97193 17.4628C5.05451 17.4213 4.42721 17.2746 3.87833 17.0614C3.30272 16.8449 2.7812 16.5056 2.35008 16.0671C1.91127 15.6364 1.57169 15.1151 1.35503 14.5396C1.14253 13.9907 0.996682 13.3634 0.95434 12.446C0.911997 11.5247 0.902588 11.2314 0.902588 8.88925C0.902588 6.5463 0.912781 6.25304 0.95434 5.33405C0.995898 4.41505 1.14253 3.78776 1.35503 3.23887C1.57201 2.66339 1.91185 2.14213 2.35086 1.7114C2.78137 1.27269 3.30237 0.933119 3.87754 0.716354C4.42643 0.503857 5.05373 0.358011 5.97115 0.315668H5.97193ZM13.0133 1.86823C12.1038 1.82667 11.8309 1.81804 9.52792 1.81804C7.22496 1.81804 6.95208 1.82667 6.0425 1.86823C5.20114 1.90665 4.74478 2.04701 4.44054 2.16541C4.03829 2.32223 3.75052 2.50807 3.44863 2.80996C3.16246 3.08836 2.94223 3.42728 2.80408 3.80187C2.68568 4.10611 2.54532 4.56247 2.5069 5.40383C2.46534 6.31341 2.45672 6.58629 2.45672 8.88925C2.45672 11.1922 2.46534 11.4651 2.5069 12.3747C2.54532 13.216 2.68568 13.6724 2.80408 13.9766C2.94209 14.3507 3.16243 14.6902 3.44863 14.9685C3.72699 15.2548 4.06652 15.4751 4.44054 15.6131C4.74478 15.7315 5.20114 15.8719 6.0425 15.9103C6.95208 15.9518 7.22417 15.9605 9.52792 15.9605C11.8317 15.9605 12.1038 15.9518 13.0133 15.9103C13.8547 15.8719 14.3111 15.7315 14.6153 15.6131C15.0176 15.4563 15.3053 15.2704 15.6072 14.9685C15.8934 14.6902 16.1138 14.3507 16.2518 13.9766C16.3702 13.6724 16.5105 13.216 16.5489 12.3747C16.5905 11.4651 16.5991 11.1922 16.5991 8.88925C16.5991 6.58629 16.5905 6.31341 16.5489 5.40383C16.5105 4.56247 16.3702 4.10611 16.2518 3.80187C16.0949 3.39962 15.9091 3.11185 15.6072 2.80996C15.3288 2.52381 14.9899 2.30358 14.6153 2.16541C14.3111 2.04701 13.8547 1.90665 13.0133 1.86823ZM8.42623 11.5482C9.0415 11.8043 9.7266 11.8389 10.3645 11.646C11.0024 11.4531 11.5536 11.0447 11.9239 10.4906C12.2942 9.9365 12.4606 9.27102 12.3947 8.60783C12.3288 7.94465 12.0348 7.32491 11.5627 6.85446C11.2618 6.55373 10.898 6.32346 10.4974 6.18023C10.0968 6.037 9.6694 5.98436 9.24603 6.02612C8.82266 6.06788 8.41381 6.20299 8.04892 6.42172C7.68403 6.64046 7.37217 6.93737 7.13581 7.2911C6.89944 7.64482 6.74444 8.04655 6.68197 8.46736C6.61949 8.88818 6.6511 9.31761 6.77451 9.72475C6.89792 10.1319 7.11007 10.5066 7.39568 10.8219C7.68129 11.1372 8.03325 11.3853 8.42623 11.5482ZM6.39301 5.75433C6.80469 5.34265 7.29343 5.01609 7.83132 4.79328C8.36921 4.57048 8.94572 4.45581 9.52792 4.45581C10.1101 4.45581 10.6866 4.57048 11.2245 4.79328C11.7624 5.01609 12.2512 5.34265 12.6628 5.75433C13.0745 6.16602 13.4011 6.65476 13.6239 7.19265C13.8467 7.73054 13.9614 8.30704 13.9614 8.88925C13.9614 9.47146 13.8467 10.048 13.6239 10.5859C13.4011 11.1237 13.0745 11.6125 12.6628 12.0242C11.8314 12.8556 10.7037 13.3227 9.52792 13.3227C8.3521 13.3227 7.22444 12.8556 6.39301 12.0242C5.56157 11.1927 5.09448 10.0651 5.09448 8.88925C5.09448 7.71343 5.56157 6.58577 6.39301 5.75433ZM14.9446 5.11606C15.0467 5.01982 15.1283 4.9041 15.1848 4.77573C15.2413 4.64736 15.2715 4.50897 15.2735 4.36874C15.2756 4.22851 15.2494 4.08929 15.1967 3.95933C15.144 3.82937 15.0657 3.71131 14.9666 3.61215C14.8674 3.51298 14.7493 3.43471 14.6194 3.38199C14.4894 3.32926 14.3502 3.30315 14.21 3.3052C14.0697 3.30724 13.9313 3.3374 13.803 3.39389C13.6746 3.45038 13.5589 3.53205 13.4626 3.63407C13.2755 3.83248 13.173 4.09601 13.177 4.36874C13.181 4.64146 13.2911 4.9019 13.4839 5.09477C13.6768 5.28763 13.9372 5.39774 14.21 5.40171C14.4827 5.40569 14.7462 5.30322 14.9446 5.11606Z" fill="white"/>
</svg>
