<svg width="19" height="19" viewBox="0 0 19 19" fill="none" xmlns="http://www.w3.org/2000/svg">
<path d="M17.6069 0.871338H1.01485C0.615829 0.871338 0.293457 1.19371 0.293457 1.59273V18.1847C0.293457 18.5838 0.615829 18.9061 1.01485 18.9061H17.6069C18.0059 18.9061 18.3283 18.5838 18.3283 18.1847V1.59273C18.3283 1.19371 18.0059 0.871338 17.6069 0.871338ZM5.64303 16.2392H2.96712V7.63213H5.64303V16.2392ZM4.3062 6.45536C3.99944 6.45536 3.69957 6.3644 3.44451 6.19397C3.18945 6.02355 2.99066 5.78131 2.87327 5.49791C2.75588 5.2145 2.72516 4.90265 2.78501 4.60178C2.84485 4.30092 2.99257 4.02456 3.20948 3.80765C3.42639 3.59074 3.70275 3.44302 4.00362 3.38318C4.30448 3.32333 4.61633 3.35405 4.89974 3.47144C5.18314 3.58883 5.42538 3.78762 5.5958 4.04268C5.76623 4.29774 5.85719 4.59761 5.85719 4.90437C5.85494 5.76102 5.1606 6.45536 4.3062 6.45536ZM15.6614 16.2392H12.9877V12.0529C12.9877 11.0542 12.9697 9.77151 11.5968 9.77151C10.2058 9.77151 9.99167 10.8581 9.99167 11.9808V16.2392H7.32026V7.63213H9.88571V8.8089H9.92178C10.278 8.1326 11.1504 7.41797 12.4534 7.41797C15.1631 7.41797 15.6614 9.20116 15.6614 11.5186V16.2392Z" fill="white"/>
</svg>
