<svg width="16" height="16" viewBox="0 0 16 16" fill="none" xmlns="http://www.w3.org/2000/svg">
<path fill-rule="evenodd" clip-rule="evenodd" d="M11.6509 9.93364C11.4637 9.84007 10.5462 9.38916 10.3754 9.32636C10.2046 9.26419 10.0802 9.23341 9.95525 9.42056C9.8309 9.60645 9.47356 10.0272 9.36492 10.1516C9.25564 10.2765 9.147 10.2916 8.96048 10.1987C8.77396 10.1045 8.17233 9.9079 7.45954 9.27235C6.90501 8.77748 6.53009 8.16643 6.42145 7.97928C6.3128 7.79277 6.40951 7.69166 6.50309 7.59871C6.58724 7.51519 6.6896 7.38079 6.78318 7.27215C6.87675 7.16287 6.90752 7.085 6.9697 6.96003C7.0325 6.83568 7.0011 6.72704 6.954 6.63346C6.90752 6.53989 6.53449 5.62112 6.37874 5.24745C6.22739 4.88383 6.07353 4.93345 5.95923 4.92717C5.84996 4.92214 5.72561 4.92089 5.60127 4.92089C5.47692 4.92089 5.2747 4.96736 5.10389 5.15451C4.93244 5.34102 4.45076 5.79256 4.45076 6.71134C4.45076 7.62948 5.11896 8.51686 5.21253 8.64183C5.3061 8.76618 6.52821 10.6515 8.4003 11.4597C8.84618 11.6519 9.19347 11.7668 9.46414 11.8522C9.91128 11.9948 10.3182 11.9747 10.6398 11.9263C10.9977 11.8729 11.7438 11.4748 11.8996 11.0389C12.0547 10.6031 12.0547 10.2294 12.0082 10.1516C11.9617 10.0737 11.8374 10.0272 11.6502 9.93364H11.6509ZM8.24581 14.5828H8.2433C7.13136 14.583 6.03985 14.2841 5.08316 13.7174L4.85708 13.583L2.50707 14.1997L3.13445 11.9087L2.98687 11.6739C2.36523 10.6843 2.03625 9.53912 2.03795 8.37053C2.03921 4.94789 4.82379 2.1633 8.24832 2.1633C9.90626 2.1633 11.465 2.81015 12.6368 3.98327C13.2148 4.55889 13.673 5.24341 13.9847 5.99723C14.2965 6.75104 14.4556 7.5592 14.453 8.37493C14.4518 11.7976 11.6672 14.5828 8.24581 14.5828ZM13.5286 3.09213C12.8367 2.39562 12.0134 1.84336 11.1064 1.46735C10.1995 1.09134 9.22697 0.899051 8.24518 0.901637C4.12922 0.901637 0.778168 4.25206 0.776912 8.3699C0.776284 9.68621 1.1198 10.9711 1.77356 12.1034L0.714111 15.9738L4.67307 14.9351C5.76824 15.5318 6.9955 15.8444 8.24267 15.8445H8.24581C12.3618 15.8445 15.7128 12.494 15.7141 8.37556C15.7171 7.39415 15.5255 6.42189 15.1504 5.515C14.7753 4.60812 14.224 3.78461 13.5286 3.09213Z" fill="white"/>
</svg>
